<svg xmlns="http://www.w3.org/2000/svg" viewBox="0 0 99.84 99.84"><defs><style>.a{fill:#fd474d;}.b{fill:#fff;stroke:#fff;stroke-miterlimit:10;}</style></defs><title>computer_phone</title><circle class="a" cx="49.92" cy="49.92" r="49.92"/><path class="b" d="M68.27,37.82V30.71a3,3,0,0,0-3-3H28.68a3,3,0,0,0-3,3V57.11a3,3,0,0,0,3,3H56.09v-2H28.68a1,1,0,0,1-1-1V30.71a1,1,0,0,1,1-1H65.23a1,1,0,0,1,1,1v7.11h2Z" transform="translate(-0.08 -0.08)"/><polygon class="b" points="26.57 53.98 54.99 53.98 54.99 51.95 26.57 51.95 26.57 53.98"/><path class="b" d="M38.83,66.24H55.08a1,1,0,0,0,0-2H38.83A1,1,0,0,0,38.83,66.24Z" transform="translate(-0.08 -0.08)"/><polygon class="b" points="41.85 58.73 39.82 64.83 41.75 65.47 43.78 59.38 41.85 58.73"/><polygon class="b" points="49.97 59.38 52 65.47 53.93 64.83 51.9 58.73 49.97 59.38"/><path class="b" d="M57.11,37.82a1,1,0,0,0-1,1V69.29a1,1,0,0,0,1,1H71.32a1,1,0,0,0,1-1V38.83a1,1,0,0,0-1-1H57.11Zm0-2H71.32a3,3,0,0,1,3,3V69.29a3,3,0,0,1-3,3H57.11a3,3,0,0,1-3-3V38.83A3,3,0,0,1,57.11,35.79Z" transform="translate(-0.08 -0.08)"/><path class="b" d="M56.09,64.21H72.33V41.88H56.09V64.21Zm-1-24.36H73.35a1,1,0,0,1,1,1V65.23a1,1,0,0,1-1,1H55.08a1,1,0,0,1-1-1V40.86A1,1,0,0,1,55.08,39.85Z" transform="translate(-0.08 -0.08)"/></svg>