<svg xmlns="http://www.w3.org/2000/svg" viewBox="0 0 99.84 99.84"><defs><style>.a{fill:#fd474d;}.b{fill:#fff;}</style></defs><title>pixel</title><circle class="a" cx="49.92" cy="49.92" r="49.92"/><path class="b" d="M38.62,24.41a4,4,0,0,0-4,4V71.61a4,4,0,0,0,4,4H61.38a4,4,0,0,0,4-4V28.39a4,4,0,0,0-4-4H38.62Zm0,3.41H61.38a0.53,0.53,0,0,1,.57.57v1.14H38.06V28.39A0.53,0.53,0,0,1,38.62,27.82Zm-0.57,5.12H61.94V62.51H38.06V32.94Zm0,33H61.94v5.69a0.53,0.53,0,0,1-.57.57H38.62a0.53,0.53,0,0,1-.57-0.57V65.93Zm7.78,1.14A1.71,1.71,0,1,0,46,70.48h8a1.71,1.71,0,1,0,0-3.41H45.84Z" transform="translate(-0.08 -0.08)"/></svg>