<svg xmlns="http://www.w3.org/2000/svg" viewBox="0 0 99.84 99.84"><defs><style>.a{fill:#fd474d;}.b{fill:#fff;stroke:#fff;stroke-miterlimit:10;stroke-width:1.5px;}</style></defs><title>daydream</title><circle class="a" cx="49.92" cy="49.92" r="49.92"/><path class="b" d="M27,44.82a2,2,0,0,0-2.58,1c-0.19.32-1.76,0.31-2.15,0.49a4.54,4.54,0,0,0-1.06,1.45V59.86c0,0.88,1.52,1.91,2.33,2.24q11.82,4.76,17.54,7,0.8,0.32,2.66-1.12c0.26,0.1.29-1.54,0.53-1.63a2.16,2.16,0,0,0,1.38-2V53.29a2.16,2.16,0,0,0-1.4-2Zm0.5-1.35,17.25,6.44a3.59,3.59,0,0,1,2.34,3.37V64.37A3.59,3.59,0,0,1,43.46,68C43,68,42.13,69.2,41.7,69L24.15,62.31c-1.36-.55-2.84-1.41-2.84-2.88l0.31-12.28c0-.35,1-1,1.14-1.3A3.59,3.59,0,0,1,27.47,43.48Z" transform="translate(-0.08 -0.08)"/><path class="b" d="M24.81,46.62a2.16,2.16,0,0,0-2.91,2V59.22a2.16,2.16,0,0,0,1.35,2l17.25,7a2.16,2.16,0,0,0,3-2V55.09a2.16,2.16,0,0,0-1.4-2Zm0.5-1.35,17.25,6.44a3.59,3.59,0,0,1,2.34,3.37V66.17A3.59,3.59,0,0,1,40,69.5l-17.25-7a3.59,3.59,0,0,1-2.25-3.33V48.64A3.59,3.59,0,0,1,25.31,45.27Z" transform="translate(-0.08 -0.08)"/><path class="b" d="M25.16,45l-0.67-1.27,9.84-5.21c0.81-.44,1.73-0.31,3.17.26,0.33,0.13,3.27,1.42,4.38,1.84,0.54,0.21,1.08.4,1.63,0.58a19.87,19.87,0,0,0,2.69.6l2.54,0.43c1.07,0.19,1.94.35,2.79,0.54a23.76,23.76,0,0,1,4.75,1.51c4.06,1.86,6.11,4.23,6.25,8.16,0.15,4.3-2,7.17-6,9.6-0.44.27-.9,0.53-1.43,0.81l-0.68.36-0.64.34q-3.44,1.83-8.68,4l-0.55-1.33q5.18-2.14,8.55-3.93L53.77,62l0.67-.36c0.51-.28.95-0.53,1.37-0.78,3.6-2.18,5.41-4.63,5.27-8.32-0.12-3.31-1.8-5.25-5.41-6.91a22.4,22.4,0,0,0-4.46-1.42c-0.82-.18-1.67-0.35-2.72-0.53l-2.54-.43a20.92,20.92,0,0,1-2.89-.65c-0.57-.19-1.13-0.39-1.69-0.61-1.14-.44-4.09-1.73-4.39-1.84-1.08-.42-1.65-0.5-2-0.33Z" transform="translate(-0.08 -0.08)"/><path class="b" d="M58.31,46.84L58.1,45.41c10.59-1.58,17-4.2,19.26-7.73l0.09-.14,0.14-.09a0.92,0.92,0,0,1,1.33.41,3.63,3.63,0,0,1,.38,1.06,12.22,12.22,0,0,1,.21,3.24c-0.18,3.13-1.29,5.86-3.46,7.41Q71.5,52.85,62,55.12l-0.34-1.4q9.29-2.23,13.59-5.31c1.75-1.25,2.7-3.59,2.86-6.32a11,11,0,0,0-.16-2.75C75,42.86,68.45,45.32,58.31,46.84Z" transform="translate(-0.08 -0.08)"/><path class="b" d="M43.29,42.33l-0.73-1.24a29.42,29.42,0,0,1,18-4.32c6,0.59,10.47,2,13.29,4.39L73,42.26c-2.56-2.13-6.73-3.5-12.51-4.07A28,28,0,0,0,43.29,42.33Z" transform="translate(-0.08 -0.08)"/><path class="b" d="M36,39.51l-0.93-1.09a33.72,33.72,0,0,1,9-5.71,40,40,0,0,1,23.07-1.38c6.09,1.59,10,3.76,11.82,6.58l-1.21.77c-1.55-2.45-5.2-4.45-11-6A38.62,38.62,0,0,0,44.6,34,32.32,32.32,0,0,0,36,39.51Z" transform="translate(-0.08 -0.08)"/><path class="b" d="M75.25,41.66l-0.86-1.15c3.18-2.37,3.17-3-.35-5.06l0.73-1.24C79.2,36.81,79.23,38.7,75.25,41.66Z" transform="translate(-0.08 -0.08)"/></svg>